<?xml version="1.0" encoding="UTF-8"?>
<svg width="1296px" height="392px" viewBox="0 0 1296 392" version="1.1" xmlns="http://www.w3.org/2000/svg" xmlns:xlink="http://www.w3.org/1999/xlink">
    <!-- Generator: Sketch 41.2 (35397) - http://www.bohemiancoding.com/sketch -->
    <title>Logo White</title>
    <desc>Created with Sketch.</desc>
    <defs></defs>
    <g id="Page-1" stroke="none" stroke-width="1" fill="none" fill-rule="evenodd">
        <g id="Logo-White">
            <path d="M-200.5,224.5 L1457.50483,224.5" id="Line" stroke="#FFFFFF" stroke-width="3" stroke-linecap="square"></path>
            <path d="M1084.19809,224.788351 C1083.55173,224.815584 1082.82368,224.8292 1082.01392,224.8292 L1062.38952,224.8292 C1054.65028,224.8292 1048.66168,224.46067 1044.42352,223.7236 C1040.18537,222.98653 1036.31581,221.604544 1032.81472,219.5776 C1026.91816,216.445051 1021.20595,211.515967 1015.67792,204.7902 C1010.1499,198.064434 1003.42423,189.450053 995.500724,178.946801 C992.552442,175.077182 989.604205,171.115488 986.655924,167.061601 C983.707642,163.007714 980.897604,159.138153 978.225724,155.452802 C975.553844,151.76745 973.066269,148.404617 970.762924,145.364202 C968.459579,142.323787 966.662997,139.882278 965.373124,138.039602 C964.267519,136.933996 963.069797,136.381202 961.779924,136.381202 L927.782725,135.828402 C926.492852,135.828402 925.847925,136.565461 925.847925,138.039602 L925.847925,144.673202 C925.847925,157.940468 925.893991,169.779482 925.986125,180.190601 C926.078259,190.601719 926.492855,198.755438 927.229925,204.652 C927.59846,208.705887 928.427652,212.114786 929.717525,214.8788 C931.007398,217.642814 933.77137,219.301197 938.009525,219.854 C940.036468,220.222535 942.293712,220.498932 944.781325,220.6832 C947.268937,220.867468 949.157652,220.9596 950.447525,220.9596 C951.921665,220.9596 952.658725,221.512395 952.658725,222.618 C952.658725,224.092141 951.184606,224.8292 948.236325,224.8292 C944.366705,224.8292 940.497144,224.783134 936.627525,224.691 C932.757906,224.598866 929.210808,224.506734 925.986125,224.4146 C922.761442,224.322466 920.089603,224.230334 917.970525,224.1382 C915.851448,224.046066 914.607661,224 914.239125,224 L911.336925,224.1382 C909.402116,224.230334 907.052739,224.322466 904.288726,224.4146 C901.524712,224.506734 898.668607,224.598866 895.720326,224.691 C892.772044,224.783134 890.284469,224.8292 888.257526,224.8292 C885.309245,224.8292 883.835126,224.092141 883.835126,222.618 C883.835126,221.512395 884.572185,220.9596 886.046326,220.9596 C887.336199,220.9596 888.718185,220.867468 890.192326,220.6832 C891.666467,220.498932 893.048453,220.222535 894.338326,219.854 C897.10234,219.301197 898.991054,217.642814 900.004526,214.8788 C901.017997,212.114786 901.801123,208.705887 902.353926,204.652 C903.090996,198.755438 903.505592,190.601719 903.597726,180.190601 C903.689859,169.779482 903.735926,157.940468 903.735926,144.673202 L903.735926,53.4612038 C903.735926,49.2230493 903.689859,45.8602164 903.597726,43.372604 C903.505592,40.8849916 903.367393,38.5356152 903.183126,36.3244041 C902.81459,31.533447 901.893266,27.940283 900.419126,25.5448044 C898.944985,23.1493258 895.904615,21.4909424 891.297926,20.5696045 C890.19232,20.2010693 888.672136,19.9707383 886.737326,19.8786045 C884.802516,19.7864707 883.190199,19.7404045 881.900326,19.7404045 C880.426185,19.7404045 879.689126,19.1876101 879.689126,18.0820045 C879.689126,16.6078639 881.163245,15.8708046 884.111526,15.8708046 C887.244075,15.8708046 890.560842,15.9168708 894.061926,16.0090046 C897.56301,16.1011384 900.83371,16.1932708 903.874126,16.2854046 C906.914541,16.3775384 909.494248,16.4696708 911.613325,16.5618046 C913.732403,16.6539384 914.97619,16.7000046 915.344725,16.7000046 C916.081796,16.7000046 917.786245,16.6539384 920.458125,16.5618046 C923.130005,16.4696708 926.170375,16.3775384 929.579325,16.2854046 C932.988275,16.1932708 936.351108,16.1011384 939.667925,16.0090046 C942.984741,15.9168708 945.748714,15.8708046 947.959925,15.8708046 C956.804769,15.8708046 965.603414,16.5617977 974.356124,17.9438046 C983.108834,19.3258114 991.17042,22.6886444 998.541124,28.0324043 C1000.19953,29.3222774 1002.13431,31.1188594 1004.34552,33.4222042 C1006.55673,35.725549 1008.62971,38.4434551 1010.56452,41.576004 C1012.49933,44.708553 1014.15772,48.3017169 1015.53972,52.3556038 C1016.92173,56.4094906 1017.61272,60.8318463 1017.61272,65.6228035 C1017.61272,75.9417882 1015.12515,86.3066843 1010.14992,96.7178028 C1005.1747,107.128921 996.514252,118.046612 984.168324,129.471202 C995.592914,144.028341 1006.00388,157.295408 1015.40152,169.272801 C1024.79917,181.250194 1033.55175,191.569024 1041.65952,200.229601 C1049.21449,208.153107 1055.84803,213.312522 1061.56032,215.708 C1067.27262,218.103479 1071.87924,219.577597 1075.38032,220.1304 C1077.47523,220.429673 1079.32709,220.637808 1080.93593,220.754809 C1082.13992,220.667027 1083.17458,220.551024 1084.03993,220.4068 C1090.48929,219.485462 1095.32624,216.675424 1098.55093,211.9766 C1101.77561,207.277777 1104.67778,201.427369 1107.25753,194.425201 L1170.00032,22.7808044 C1171.65873,18.1741148 1172.85645,15.2258777 1173.59352,13.9360046 C1174.33059,12.6461316 1175.15979,12.0012047 1176.08112,12.0012047 C1177.00246,12.0012047 1177.83165,12.6000653 1178.56872,13.7978046 C1179.30579,14.9955439 1180.50352,17.71345 1182.16192,21.9516045 C1182.89899,23.6100127 1184.60344,27.940236 1187.27532,34.9424042 C1189.9472,41.9445724 1193.17184,50.4668203 1196.94932,60.5094036 C1200.72681,70.5519869 1204.91883,81.5618099 1209.52552,93.5392029 C1214.13221,105.516596 1218.69277,117.355611 1223.20732,129.056602 C1227.72188,140.757594 1232.0521,151.859549 1236.19812,162.362801 L1246.56312,188.620801 C1248.9586,194.701631 1251.30798,199.676781 1253.61132,203.5464 C1255.91467,207.41602 1258.03371,210.456389 1259.96852,212.6676 C1261.90333,214.878811 1263.74598,216.445062 1265.49652,217.3664 C1267.24706,218.287738 1268.85938,218.932665 1270.33352,219.3012 C1272.36047,220.03827 1274.34131,220.498932 1276.27612,220.6832 C1278.21093,220.867468 1279.91538,220.9596 1281.38952,220.9596 C1283.2322,220.9596 1284.15352,221.512395 1284.15352,222.618 C1284.15352,223.539338 1283.60073,224.138199 1282.49512,224.4146 C1281.38952,224.691001 1280.09966,224.8292 1278.62552,224.8292 L1262.31792,224.8292 C1258.4483,224.8292 1254.16415,224.783134 1249.46532,224.691 C1244.7665,224.598866 1240.02168,224.460668 1235.23072,224.2764 C1232.65098,224.092132 1230.62406,223.953934 1229.14992,223.8618 C1227.67578,223.769666 1226.93872,223.262938 1226.93872,222.3416 C1226.93872,221.420262 1227.58365,220.775335 1228.87352,220.4068 C1229.79486,220.038265 1230.53192,219.255139 1231.08472,218.0574 C1231.63753,216.859661 1231.45326,215.155211 1230.53192,212.944 L1204.82672,144.949602 C1204.27392,143.843996 1203.44473,143.291202 1202.33912,143.291202 L1142.91313,143.291202 C1141.62325,143.291202 1140.70193,144.028261 1140.14913,145.502402 L1123.56513,194.425201 C1120.98538,201.611636 1119.69553,207.784508 1119.69553,212.944 C1119.69553,215.708014 1120.84718,217.734927 1123.15053,219.0248 C1125.45387,220.314673 1127.80325,220.9596 1130.19873,220.9596 L1132.96273,220.9596 C1134.8054,220.9596 1135.72673,221.512395 1135.72673,222.618 C1135.72673,224.092141 1134.34474,224.8292 1131.58073,224.8292 C1129.92232,224.8292 1127.98754,224.783134 1125.77633,224.691 C1123.56511,224.598866 1121.44607,224.506734 1119.41913,224.4146 C1117.39218,224.322466 1115.50347,224.230334 1113.75293,224.1382 C1112.00238,224.046066 1110.7586,224 1110.02153,224 C1109.28446,224 1107.8564,224.046066 1105.73733,224.1382 C1103.61825,224.230334 1101.08461,224.322466 1098.13633,224.4146 C1095.18804,224.506734 1092.05554,224.598866 1088.73873,224.691 C1087.22517,224.733043 1085.71163,224.765493 1084.19809,224.788351 Z M61.5127246,228.6988 C69.0676956,228.6988 76.4382884,227.823542 83.6247241,226.073 C90.8111599,224.322458 97.352561,221.328155 103.249124,217.09 C108.040081,213.773184 111.955708,210.041821 114.996123,205.8958 C118.036539,201.74978 120.431981,197.557755 122.182523,193.319601 C123.933065,189.081446 125.130787,185.02762 125.775723,181.158001 C126.42066,177.288382 126.743123,173.971615 126.743123,171.207601 C126.743123,165.679574 126.190329,160.38196 125.084723,155.314602 C123.979118,150.247243 121.906138,145.17996 118.865723,140.112602 C115.825308,135.045243 111.67935,129.74763 106.427724,124.219602 C101.176097,118.691575 94.4964978,112.702968 86.3887241,106.253603 L78.6495243,100.172803 C72.0158912,95.0133104 66.5340128,90.4066899 62.2037246,86.352803 C57.8734364,82.2989162 54.418471,78.5214874 51.8387248,75.0204033 C49.2589787,71.5193192 47.4623967,68.0643538 46.448925,64.6554035 C45.4354533,61.2464532 44.928725,57.607223 44.928725,53.7376038 C44.928725,43.6028866 48.1994256,35.7255656 54.7409248,30.1054043 C61.282424,24.485243 69.3440099,21.6752045 78.9259242,21.6752045 C85.1910221,21.6752045 90.4425695,22.2740651 94.6807239,23.4718044 C98.9188783,24.6695437 102.373844,26.0975961 105.045724,27.7560043 C107.717604,29.4144126 109.69845,31.072796 110.988324,32.7312042 C112.278197,34.3896125 113.107388,35.5873338 113.475923,36.3244041 C114.397261,37.7985448 115.180387,40.0557889 115.825323,43.096204 C116.47026,46.1366191 116.884856,48.4859956 117.069123,50.1444038 C117.253391,51.2500093 117.437656,52.1252672 117.621923,52.7702038 C117.806191,53.4151403 118.358985,53.7376038 119.280323,53.7376038 C120.570196,53.7376038 121.215123,51.6185583 121.215123,47.3804039 C121.215123,37.9827571 121.399388,30.9346278 121.767923,26.2358044 C122.136458,21.536981 122.320723,18.8190749 122.320723,18.0820045 C122.320723,16.7921315 121.399399,16.1472046 119.556723,16.1472046 C118.451118,16.1472046 117.20733,16.0550722 115.825323,15.8708046 C114.443317,15.686537 112.46247,15.3180074 109.882724,14.7652046 C106.381639,13.8438667 102.558144,13.1528736 98.4121238,12.6922047 C94.2661032,12.2315357 89.5212841,12.0012047 84.1775241,12.0012047 C75.3326801,12.0012047 67.4092928,13.198926 60.4071247,15.5944046 C53.4049565,17.9898832 47.4163498,21.3987824 42.4411251,25.8212044 C37.4659003,30.2436264 33.6424053,35.4951738 30.9705253,41.576004 C28.2986453,47.6568343 26.9627254,54.3825002 26.9627254,61.7532036 C26.9627254,66.5441608 27.4694536,71.1968475 28.4829254,75.7114033 C29.4963971,80.2259591 31.3390453,84.924712 34.0109252,89.807803 C36.6828052,94.6908939 40.3220354,99.7121103 44.928725,104.871603 C49.5354146,110.031095 55.5240212,115.651172 62.8947246,121.732002 L75.3327243,131.958802 C81.229287,136.934027 86.2044371,141.402449 90.258324,145.364202 C94.3122108,149.325955 97.5829114,153.195516 100.070524,156.973001 C102.558136,160.750487 104.354718,164.620048 105.460324,168.581801 C106.565929,172.543554 107.118724,176.919844 107.118724,181.710801 C107.118724,186.133223 106.289532,190.555579 104.631124,194.978001 C102.972715,199.400423 100.531207,203.31605 97.3065238,206.725 C94.0818411,210.133951 89.9819489,212.943989 85.0067241,215.1552 C80.0314993,217.366411 74.2271575,218.472 67.5935245,218.472 C62.9868349,218.472 58.4723468,217.965272 54.0499248,216.9518 C49.6275028,215.938328 45.5276105,214.326011 41.7501251,212.1148 C37.9726396,209.903589 34.7940715,207.001418 32.2143253,203.4082 C29.6345791,199.814983 27.7919309,195.438693 26.6863254,190.279201 C26.3177902,188.252257 26.0874592,186.363543 25.9953254,184.613001 C25.9031916,182.862459 25.8571254,181.342274 25.8571254,180.052401 C25.8571254,178.025458 25.2121985,177.012001 23.9223255,177.012001 C22.6324524,177.012001 21.8953931,178.48612 21.7111255,181.434401 C21.5268579,183.645612 21.2504607,187.330908 20.8819255,192.490401 C20.5133904,197.649893 20.3291255,203.730632 20.3291255,210.7328 C20.3291255,214.418152 20.5133904,216.859661 20.8819255,218.0574 C21.2504607,219.255139 22.448182,220.314662 24.4751254,221.236 C30.1874206,224.000014 36.1760272,225.934794 42.4411251,227.0404 C48.7062229,228.146005 55.0633592,228.6988 61.5127246,228.6988 Z M190.257526,194.425201 C187.67778,201.427369 184.775609,207.277777 181.550926,211.9766 C178.326243,216.675424 173.489292,219.485462 167.039926,220.4068 C165.934321,220.591068 164.552335,220.729266 162.893927,220.8214 C161.235518,220.913534 159.945665,220.9596 159.024327,220.9596 C157.365918,220.9596 156.536727,221.512395 156.536727,222.618 C156.536727,224.092141 158.287242,224.8292 161.788327,224.8292 C165.105143,224.8292 168.42191,224.783134 171.738726,224.691 C175.055543,224.598866 178.188045,224.506734 181.136326,224.4146 C184.084608,224.322466 186.618249,224.230334 188.737326,224.1382 C190.856403,224.046066 192.284456,224 193.021526,224 C193.758596,224 195.002384,224.046066 196.752926,224.1382 C198.503468,224.230334 200.392182,224.322466 202.419126,224.4146 C204.446069,224.506734 206.565115,224.598866 208.776326,224.691 C210.987537,224.783134 212.922317,224.8292 214.580725,224.8292 C217.344739,224.8292 218.726725,224.092141 218.726725,222.618 C218.726725,221.512395 217.805401,220.9596 215.962725,220.9596 L213.198725,220.9596 C210.803247,220.9596 208.45387,220.314673 206.150526,219.0248 C203.847181,217.734927 202.695526,215.708014 202.695526,212.944 C202.695526,207.784508 203.985379,201.611636 206.565126,194.425201 L224.5,142 L286.5,142 L313.531923,212.944 C314.453261,215.155211 314.637526,216.859661 314.084723,218.0574 C313.53192,219.255139 312.794861,220.038265 311.873523,220.4068 C310.58365,220.775335 309.938723,221.420262 309.938723,222.3416 C309.938723,223.262938 310.675783,223.769666 312.149923,223.8618 C313.624064,223.953934 315.650977,224.092132 318.230723,224.2764 C323.02168,224.460668 327.766499,224.598866 332.465323,224.691 C337.164146,224.783134 341.448303,224.8292 345.317923,224.8292 L361.625522,224.8292 C363.099663,224.8292 364.389517,224.691001 365.495122,224.4146 C366.600728,224.138199 367.153522,223.539338 367.153522,222.618 C367.153522,221.512395 366.232198,220.9596 364.389522,220.9596 C362.915381,220.9596 361.210932,220.867468 359.276122,220.6832 C357.341313,220.498932 355.360466,220.03827 353.333522,219.3012 C351.859382,218.932665 350.247065,218.287738 348.496522,217.3664 C346.74598,216.445062 344.903332,214.878811 342.968523,212.6676 C341.033713,210.456389 338.914668,207.41602 336.611323,203.5464 C334.307978,199.676781 331.958601,194.701631 329.563123,188.620801 L319.198123,162.362801 C315.052102,151.859549 310.721879,140.757594 306.207323,129.056602 C301.692768,117.355611 297.132213,105.516596 292.525524,93.5392029 C287.918834,81.5618099 283.726809,70.5519869 279.949324,60.5094036 C276.171839,50.4668203 272.947204,41.9445724 270.275324,34.9424042 C267.603444,27.940236 265.898995,23.6100127 265.161924,21.9516045 C263.503516,17.71345 262.305795,14.9955439 261.568724,13.7978046 C260.831654,12.6000653 260.002462,12.0012047 259.081124,12.0012047 C258.159787,12.0012047 257.330595,12.6461316 256.593524,13.9360046 C255.856454,15.2258777 254.658733,18.1741148 253.000325,22.7808044 L190.257526,194.425201 Z M224.5,142 L252.447525,56.7780037 C253.737398,52.7241168 255.119384,52.7241168 256.593524,56.7780037 L286.5,142 L224.5,142 Z M591.951522,19.4640045 C591.39872,14.4887798 590.293131,12.0012047 588.634722,12.0012047 C587.160582,12.0012047 585.778596,13.4753232 584.488723,16.4236046 L503.227124,190.002801 L418.648726,16.1472046 C417.358853,13.3831908 415.976867,12.0012047 414.502726,12.0012047 C412.844318,12.0012047 411.830862,13.6595881 411.462326,16.9764046 L391.561527,197.189201 C391.008724,202.532961 390.179532,207.462044 389.073927,211.9766 C387.968321,216.491156 385.112217,219.209062 380.505527,220.1304 C378.478584,220.498935 376.866266,220.729266 375.668527,220.8214 C374.470788,220.913534 373.319133,220.9596 372.213527,220.9596 C370.370851,220.9596 369.449527,221.420262 369.449527,222.3416 C369.449527,224.000008 371.015778,224.8292 374.148327,224.8292 C375.991003,224.8292 378.110048,224.783134 380.505527,224.691 C382.901006,224.598866 385.250382,224.506734 387.553727,224.4146 C389.857072,224.322466 391.930051,224.230334 393.772727,224.1382 C395.615403,224.046066 396.813124,224 397.365927,224 C397.918729,224 399.070385,224.046066 400.820927,224.1382 C402.571469,224.230334 404.690514,224.322466 407.178126,224.4146 C409.665739,224.506734 412.291513,224.598866 415.055526,224.691 C417.81954,224.783134 420.49138,224.8292 423.071126,224.8292 C426.387943,224.8292 428.046326,224.000008 428.046326,222.3416 C428.046326,221.420262 427.309267,220.9596 425.835126,220.9596 C424.913788,220.9596 423.531802,220.867468 421.689126,220.6832 C419.84645,220.498932 417.727405,220.130403 415.331926,219.5776 C413.304983,219.209065 411.600533,218.195608 410.218526,216.5372 C408.83652,214.878792 408.145526,213.036144 408.145526,211.0092 L408.145526,203.8228 C408.145526,201.427322 408.237659,199.124012 408.421926,196.912801 L419.477926,68.6632034 L420.583526,68.6632034 C421.136329,69.9530765 422.33405,72.6709826 424.176726,76.8170033 C426.019402,80.9630239 428.23058,85.7999754 430.810326,91.3280029 C433.390072,96.8560304 436.107978,102.752505 438.964126,109.017603 C441.820273,115.2827 444.538179,121.133108 447.117926,126.569002 C449.697672,132.004896 451.90885,136.657583 453.751525,140.527202 C455.594201,144.396821 456.69979,146.700131 457.068325,147.437202 C457.436861,148.174272 459.003112,151.260708 461.767125,156.696601 C464.531139,162.132495 467.663641,168.351433 471.164725,175.353601 C474.665809,182.355769 478.120775,189.311766 481.529725,196.221801 C484.938675,203.131835 487.564449,208.245184 489.407125,211.562 C491.986871,216.537225 493.829519,219.900058 494.935125,221.6506 C496.04073,223.401142 497.054187,224.2764 497.975524,224.2764 C499.265398,224.2764 500.370986,223.355076 501.292324,221.5124 C502.213662,219.669724 504.148443,215.708031 507.096724,209.6272 L574.814723,65.8992035 L575.643923,65.8992035 L588.911122,208.5216 C589.279658,211.101347 589.37179,213.358591 589.187522,215.2934 C589.003255,217.22821 588.542593,218.287733 587.805522,218.472 C586.515649,218.656268 585.870723,219.301195 585.870723,220.4068 C585.870723,221.14387 586.377451,221.696665 587.390922,222.0652 C588.404394,222.433735 590.477373,222.802265 593.609922,223.1708 C596.189669,223.355068 599.736766,223.539332 604.251322,223.7236 C608.765878,223.907868 613.418565,224.092132 618.209522,224.2764 C623.000479,224.460668 627.422835,224.598866 631.476722,224.691 C635.530608,224.783134 638.294581,224.8292 639.768721,224.8292 C641.42713,224.8292 642.809116,224.644935 643.914721,224.2764 C645.020327,223.907865 645.573121,223.262938 645.573121,222.3416 C645.573121,221.420262 644.836062,220.9596 643.361921,220.9596 C641.887781,220.9596 639.538404,220.867468 636.313721,220.6832 C633.089039,220.498932 629.449808,219.761873 625.395922,218.472 C622.44764,217.550662 620.052198,215.938345 618.209522,213.635 C616.366846,211.331655 614.938794,208.798014 613.925322,206.034 C612.91185,203.269987 612.128725,200.413882 611.575922,197.465601 C611.023119,194.517319 610.65459,191.753347 610.470322,189.173601 L591.951522,19.4640045 Z M690.257526,194.425201 C687.67778,201.427369 684.775609,207.277777 681.550926,211.9766 C678.326243,216.675424 673.489292,219.485462 667.039926,220.4068 C665.934321,220.591068 664.552335,220.729266 662.893927,220.8214 C661.235518,220.913534 659.945665,220.9596 659.024327,220.9596 C657.365918,220.9596 656.536727,221.512395 656.536727,222.618 C656.536727,224.092141 658.287242,224.8292 661.788327,224.8292 C665.105143,224.8292 668.42191,224.783134 671.738726,224.691 C675.055543,224.598866 678.188045,224.506734 681.136326,224.4146 C684.084608,224.322466 686.618249,224.230334 688.737326,224.1382 C690.856403,224.046066 692.284456,224 693.021526,224 C693.758596,224 695.002384,224.046066 696.752926,224.1382 C698.503468,224.230334 700.392182,224.322466 702.419126,224.4146 C704.446069,224.506734 706.565115,224.598866 708.776326,224.691 C710.987537,224.783134 712.922317,224.8292 714.580725,224.8292 C717.344739,224.8292 718.726725,224.092141 718.726725,222.618 C718.726725,221.512395 717.805401,220.9596 715.962725,220.9596 L713.198725,220.9596 C710.803247,220.9596 708.45387,220.314673 706.150526,219.0248 C703.847181,217.734927 702.695526,215.708014 702.695526,212.944 C702.695526,207.784508 703.985379,201.611636 706.565126,194.425201 L723.149125,145.502402 C723.701928,144.028261 724.623252,143.291202 725.913125,143.291202 L785.339124,143.291202 C786.444729,143.291202 787.273921,143.843996 787.826724,144.949602 L813.531923,212.944 C814.453261,215.155211 814.637526,216.859661 814.084723,218.0574 C813.53192,219.255139 812.794861,220.038265 811.873523,220.4068 C810.58365,220.775335 809.938723,221.420262 809.938723,222.3416 C809.938723,223.262938 810.675783,223.769666 812.149923,223.8618 C813.624064,223.953934 815.650977,224.092132 818.230723,224.2764 C823.02168,224.460668 827.766499,224.598866 832.465323,224.691 C837.164146,224.783134 841.448303,224.8292 845.317923,224.8292 L861.625522,224.8292 C863.099663,224.8292 864.389517,224.691001 865.495122,224.4146 C866.600728,224.138199 867.153522,223.539338 867.153522,222.618 C867.153522,221.512395 866.232198,220.9596 864.389522,220.9596 C862.915381,220.9596 861.210932,220.867468 859.276122,220.6832 C857.341313,220.498932 855.360466,220.03827 853.333522,219.3012 C851.859382,218.932665 850.247065,218.287738 848.496522,217.3664 C846.74598,216.445062 844.903332,214.878811 842.968523,212.6676 C841.033713,210.456389 838.914668,207.41602 836.611323,203.5464 C834.307978,199.676781 831.958601,194.701631 829.563123,188.620801 L819.198123,162.362801 C815.052102,151.859549 810.721879,140.757594 806.207323,129.056602 C801.692768,117.355611 797.132213,105.516596 792.525524,93.5392029 C787.918834,81.5618099 783.726809,70.5519869 779.949324,60.5094036 C776.171839,50.4668203 772.947204,41.9445724 770.275324,34.9424042 C767.603444,27.940236 765.898995,23.6100127 765.161924,21.9516045 C763.503516,17.71345 762.305795,14.9955439 761.568724,13.7978046 C760.831654,12.6000653 760.002462,12.0012047 759.081124,12.0012047 C758.159787,12.0012047 757.330595,12.6461316 756.593524,13.9360046 C755.856454,15.2258777 754.658733,18.1741148 753.000325,22.7808044 L690.257526,194.425201 Z M728.953525,133.340802 C727.84792,133.340802 727.571522,132.695875 728.124325,131.406002 L752.447525,56.7780037 C753.737398,52.7241168 755.119384,52.7241168 756.593524,56.7780037 L782.851524,131.406002 C783.220059,132.695875 782.851529,133.340802 781.745924,133.340802 L728.953525,133.340802 Z M925.847925,29.6908043 C925.847925,28.032396 926.584984,26.9268071 928.059125,26.3740044 C929.533266,26.0054692 931.928708,25.6369396 935.245525,25.2684044 C938.562341,24.8998692 942.33977,24.7156044 946.577925,24.7156044 C961.503599,24.7156044 973.204415,29.5986221 981.680724,39.3648041 C990.157033,49.130986 994.395124,62.6744503 994.395124,79.9956032 C994.395124,90.4988555 992.782806,99.389633 989.558124,106.668203 C986.333441,113.946772 982.325681,119.244386 977.534724,122.561202 C974.402175,124.772413 970.993276,126.200466 967.307924,126.845402 C963.622573,127.490339 960.121541,127.812802 956.804724,127.812802 C950.723894,127.812802 944.873486,127.398206 939.253325,126.569002 C933.633164,125.739798 929.809669,124.680275 927.782725,123.390402 C926.492852,122.653332 925.847925,121.547743 925.847925,120.073602 L925.847925,29.6908043 Z M1084.19809,224.788351 C1085.61091,224.728825 1086.63338,224.604242 1087.26552,224.4146 C1088.18686,224.138199 1088.64752,223.539338 1088.64752,222.618 C1088.64752,221.512395 1087.81833,220.9596 1086.15992,220.9596 C1085.23858,220.9596 1083.8566,220.913534 1082.01392,220.8214 C1081.66761,220.804084 1081.30828,220.781887 1080.93593,220.754809 C1080.60165,220.779181 1080.25432,220.801378 1079.89393,220.8214 C1078.23552,220.913534 1076.94566,220.9596 1076.02433,220.9596 C1074.36592,220.9596 1073.53673,221.512395 1073.53673,222.618 C1073.53673,224.092141 1075.28724,224.8292 1078.78833,224.8292 C1080.59159,224.8292 1082.39484,224.815584 1084.19809,224.788351 Z M1145.95353,133.340802 C1144.84792,133.340802 1144.57152,132.695875 1145.12433,131.406002 L1169.44752,56.7780037 C1170.7374,52.7241168 1172.11938,52.7241168 1173.59352,56.7780037 L1199.85152,131.406002 C1200.22006,132.695875 1199.85153,133.340802 1198.74592,133.340802 L1145.95353,133.340802 Z" id="Combined-Shape" fill="#FFFFFF"></path>
            <path d="M256.039727,373.211206 C260.921793,373.211206 265.956347,373.058644 271.143541,372.753515 C276.330736,372.448385 281.36529,372.041553 286.247355,371.533004 C291.12942,371.024456 295.706288,370.312499 299.978095,369.397111 C304.249902,368.481724 307.911396,367.413789 310.962687,366.193272 C313.810558,364.972756 315.590451,363.90482 316.302419,362.989433 C317.014387,362.074046 317.878906,360.192445 318.896003,357.344573 C319.709681,354.700121 320.523346,351.292898 321.337024,347.1228 C322.150701,342.952703 322.862658,338.833522 323.472916,334.765134 C324.083175,330.696747 324.591715,327.086107 324.998554,323.933106 C325.405393,320.780106 325.608809,318.898505 325.608809,318.288246 C325.608809,317.06773 325.456247,315.999794 325.151118,315.084407 C324.845989,314.16902 324.286594,313.711333 323.472916,313.711333 C322.048981,313.711333 321.031899,315.236956 320.421641,318.288246 C320.014802,321.136118 318.845158,325.255299 316.912674,330.645912 C314.98019,336.036526 312.386632,340.460831 309.131921,343.918961 C303.02934,350.224962 295.55379,354.344143 286.705046,356.276627 C277.856303,358.209111 267.634632,359.175338 256.039727,359.175338 C239.766176,359.175338 224.86593,356.073239 211.338541,349.868948 C197.811152,343.664657 186.216421,335.426295 176.554,325.153616 C166.891579,314.880937 159.365175,303.031936 153.974561,289.606256 C148.583947,276.180577 145.888681,262.14485 145.888681,247.498654 C145.888681,231.835362 147.668574,217.341948 151.228413,204.017978 C154.788252,190.694008 162.162094,178.64159 173.350161,167.860363 C175.994613,165.215911 179.249274,162.571499 183.114242,159.927047 C186.979211,157.282595 191.70864,154.892453 197.302673,152.756549 C202.896707,150.620646 209.456883,148.891607 216.983401,147.569381 C224.509918,146.247155 233.358528,145.586052 243.529498,145.586052 C249.680292,145.586052 261.594611,146.586488 271.143541,150 C280.692471,153.413512 294.794239,163.655792 294,161.5 C283.5,133 294,161.5 283.5,133 C277,133 273.506142,133.41706 267,133 C259.066644,132.491452 249.632079,133 243.529498,133 C237.426916,133 223.238563,134.855724 213.779561,136.584789 C204.32056,138.313854 195.827928,140.602287 188.301411,143.450159 C180.774893,146.29803 174.062154,149.756108 168.162992,153.824496 C162.26383,157.892883 157.076713,162.164626 152.601487,166.639853 C145.888647,173.352693 140.294698,180.523118 135.819472,188.151345 C131.344245,195.779572 127.835313,203.305977 125.292571,210.730784 C122.749829,218.155592 120.969936,225.275163 119.952839,232.089713 C118.935742,238.904262 118.427201,244.85419 118.427201,249.939675 C118.427201,257.262773 118.986596,264.840031 120.105403,272.671677 C121.224209,280.503324 123.156664,288.283998 125.902826,296.013935 C128.648988,303.743872 132.41219,311.371984 137.192546,318.898502 C141.972901,326.425019 148.024537,333.544591 155.347635,340.25743 C167.552798,351.242077 181.639379,359.480439 197.607801,364.972762 C213.576223,370.465085 233.053337,373.211206 256.039727,373.211206 Z M354.123051,354.265201 C352.663311,358.227354 351.021127,361.537787 349.196451,364.1966 C347.371776,366.855413 344.634803,368.445464 340.985452,368.9668 C340.359849,369.071067 339.577857,369.149266 338.639452,369.2014 C337.701047,369.253534 336.971188,369.2796 336.449852,369.2796 C335.511447,369.2796 335.042252,369.592397 335.042252,370.218 C335.042252,371.052138 336.032775,371.4692 338.013852,371.4692 C339.890661,371.4692 341.767442,371.443134 343.644252,371.391 C345.521061,371.338866 347.293577,371.286734 348.961851,371.2346 C350.630126,371.182466 352.063779,371.130334 353.262851,371.0782 C354.461924,371.026066 355.269982,371 355.687051,371 C356.10412,371 356.807913,371.026066 357.798451,371.0782 C358.788989,371.130334 359.857712,371.182466 361.004651,371.2346 C362.15159,371.286734 363.350645,371.338866 364.601851,371.391 C365.853057,371.443134 366.947846,371.4692 367.886251,371.4692 C369.450259,371.4692 370.232251,371.052138 370.232251,370.218 C370.232251,369.592397 369.710923,369.2796 368.668251,369.2796 L367.104251,369.2796 C365.748777,369.2796 364.419391,368.91467 363.116051,368.1848 C361.812711,367.45493 361.161051,366.308008 361.161051,364.744 C361.161051,361.824519 361.89091,358.331621 363.350651,354.265201 L372.734651,326.582402 C373.047452,325.748264 373.56878,325.331202 374.298651,325.331202 L407.924649,325.331202 C408.550252,325.331202 409.019448,325.643999 409.332249,326.269602 L423.877449,364.744 C424.398784,365.995206 424.50305,366.959663 424.190249,367.6374 C423.877447,368.315137 423.460385,368.758266 422.939049,368.9668 C422.209178,369.175334 421.844249,369.540264 421.844249,370.0616 C421.844249,370.582936 422.261311,370.869666 423.095449,370.9218 C423.929586,370.973934 425.076508,371.052133 426.536248,371.1564 C429.247195,371.260667 431.932035,371.338866 434.590848,371.391 C437.249661,371.443134 439.673837,371.4692 441.863448,371.4692 L451.091048,371.4692 C451.925185,371.4692 452.655044,371.391001 453.280647,371.2346 C453.906251,371.078199 454.219047,370.739336 454.219047,370.218 C454.219047,369.592397 453.697719,369.2796 452.655047,369.2796 C451.82091,369.2796 450.856453,369.227467 449.761648,369.1232 C448.666842,369.018933 447.545987,368.758269 446.399048,368.3412 C445.56491,368.132666 444.652586,367.767736 443.662048,367.2464 C442.67151,366.725064 441.628853,365.838806 440.534048,364.5876 C439.439242,363.336394 438.240188,361.616011 436.936848,359.4264 C435.633508,357.23679 434.304122,354.421618 432.948648,350.980801 L427.083648,336.122801 C424.737637,330.179572 422.287395,323.897568 419.732849,317.276602 C417.178303,310.655636 414.597729,303.95657 411.991049,297.179203 C409.384369,290.401836 407.012327,284.171965 404.874849,278.489404 C402.737372,272.806842 400.912724,267.984557 399.40085,264.022404 C397.888975,260.060251 396.924518,257.610009 396.50745,256.671604 C395.569045,254.273459 394.891318,252.735541 394.47425,252.057805 C394.057181,251.380068 393.587986,251.041205 393.06665,251.041205 C392.545314,251.041205 392.076119,251.406134 391.65905,252.136005 C391.241981,252.865875 390.564255,254.534125 389.62585,257.140804 L354.123051,354.265201 Z M376.01905,319.700802 C375.393447,319.700802 375.237049,319.335872 375.54985,318.606002 L389.31305,276.378004 C390.04292,274.084126 390.824912,274.084126 391.65905,276.378004 L406.517049,318.606002 C406.725584,319.335872 406.517052,319.700802 405.891449,319.700802 L376.01905,319.700802 Z M491.328525,325.539202 C491.328525,333.142439 491.302125,339.927171 491.249325,345.893601 C491.196525,351.860031 490.958927,356.532784 490.536525,359.912 C490.219723,362.235212 489.770928,364.188792 489.190125,365.7728 C488.609322,367.356808 487.526933,368.307199 485.942925,368.624 C485.203721,368.835201 484.411729,368.9936 483.566925,369.0992 C482.722121,369.204801 481.930129,369.2576 481.190925,369.2576 C480.346121,369.2576 479.923725,369.574397 479.923725,370.208 C479.923725,371.052804 480.768517,371.4752 482.458125,371.4752 C483.619731,371.4752 485.045317,371.4488 486.734925,371.396 C488.424534,371.3432 490.061317,371.2904 491.645325,371.2376 C493.229333,371.1848 494.602119,371.132 495.763725,371.0792 C496.925331,371.0264 497.558924,371 497.664525,371 C497.875726,371 498.588519,371.0264 499.802925,371.0792 C501.017331,371.132 502.548515,371.1848 504.396524,371.2376 C506.244534,371.2904 508.277313,371.3432 510.494924,371.396 C512.712535,371.4488 514.930113,371.4752 517.147724,371.4752 C518.837332,371.4752 519.682124,371.052804 519.682124,370.208 C519.682124,369.574397 519.259728,369.2576 518.414924,369.2576 C517.67572,369.2576 516.593331,369.204801 515.167724,369.0992 C513.742117,368.9936 512.44853,368.835201 511.286924,368.624 C508.858112,368.307199 507.274128,367.356808 506.534924,365.7728 C505.795721,364.188792 505.320525,362.235212 505.109324,359.912 C504.686922,356.532784 504.449325,351.860031 504.396524,345.893601 C504.343724,339.927171 504.317324,333.142439 504.317324,325.539202 L504.317324,260.436804 C504.317324,258.747196 504.73972,257.744006 505.584524,257.427204 C506.323728,257.110403 507.300518,256.872805 508.514924,256.714404 C509.72933,256.556004 511.022917,256.476804 512.395724,256.476804 L516.197324,256.476804 C517.781332,256.476804 519.550114,256.714402 521.503724,257.189604 C523.457333,257.664807 525.516513,258.456799 527.681324,259.565604 C529.846134,260.67441 531.984513,262.284794 534.096523,264.396804 C536.208534,266.508815 537.845317,268.726392 539.006923,271.049604 C540.168529,273.372815 541.03972,275.643193 541.620523,277.860804 C542.201326,280.078415 542.570922,282.137594 542.729323,284.038403 C542.887724,285.939213 542.966923,287.523197 542.966923,288.790403 C542.966923,292.486422 542.25413,295.891987 540.828523,299.007203 C539.402916,302.122418 537.475735,304.841591 535.046923,307.164802 C532.618111,309.488014 529.71414,311.309596 526.334924,312.629602 C522.955707,313.949609 519.365343,314.609602 515.563724,314.609602 C513.874116,314.609602 512.738927,314.688801 512.158124,314.847202 C511.577321,315.005603 511.286924,315.401599 511.286924,316.035202 C511.286924,316.457604 511.471722,316.748001 511.841324,316.906402 C512.210926,317.064803 512.606922,317.144002 513.029324,317.144002 C513.451726,317.249603 513.979721,317.302402 514.613324,317.302402 L516.355724,317.302402 C521.952552,317.302402 527.1269,316.404811 531.878923,314.609602 C536.630947,312.814393 540.749306,310.253619 544.234123,306.927202 C547.71894,303.600786 550.438113,299.614426 552.391723,294.968003 C554.345332,290.32158 555.322122,285.200031 555.322122,279.603204 C555.322122,275.379183 554.450931,271.60402 552.708523,268.277604 C550.966114,264.951187 549.197332,262.443213 547.402123,260.753604 C546.76852,260.120001 545.818129,259.301609 544.550923,258.298404 C543.283717,257.295199 541.488535,256.318409 539.165323,255.368004 C536.842112,254.4176 533.96454,253.572808 530.532523,252.833605 C527.100506,252.094401 522.902949,251.724805 517.939724,251.724805 C514.243706,251.724805 510.442144,251.804004 506.534924,251.962405 C502.627705,252.120805 499.776534,252.200005 497.981325,252.200005 C497.664523,252.200005 496.898931,252.173605 495.684525,252.120805 C494.470119,252.068004 492.991734,252.015205 491.249325,251.962405 C489.506916,251.909604 487.658935,251.856805 485.705325,251.804005 C483.751715,251.751204 481.877334,251.724805 480.082125,251.724805 C478.392517,251.724805 477.547725,252.1472 477.547725,252.992005 C477.547725,253.625608 477.970121,253.942405 478.814925,253.942405 C479.554129,253.942405 480.47812,253.968804 481.586925,254.021605 C482.695731,254.074405 483.566922,254.206403 484.200525,254.417604 C486.840538,254.945607 488.582921,255.895998 489.427725,257.268804 C490.272529,258.641611 490.800524,260.700791 491.011725,263.446404 C491.117325,264.71361 491.196525,266.059997 491.249325,267.485604 C491.302125,268.911211 491.328525,270.838392 491.328525,273.267204 L491.328525,325.539202 Z M620.632524,325.539202 L620.632524,273.267204 C620.632524,270.838392 620.658924,268.911211 620.711724,267.485604 C620.764524,266.059997 620.843723,264.71361 620.949324,263.446404 C621.160525,260.700791 621.66212,258.615211 622.454124,257.189604 C623.246128,255.763997 624.698113,254.840007 626.810124,254.417604 C627.760528,254.206403 628.526121,254.074405 629.106923,254.021605 C629.687726,253.968804 630.242121,253.942405 630.770123,253.942405 C631.614928,253.942405 632.037323,253.625608 632.037323,252.992005 C632.037323,252.1472 631.192532,251.724805 629.502923,251.724805 C628.341318,251.724805 626.915732,251.751204 625.226124,251.804005 C623.536515,251.856805 621.899732,251.909604 620.315724,251.962405 C618.731716,252.015205 617.33253,252.068004 616.118124,252.120805 C614.903718,252.173605 614.190925,252.200005 613.979724,252.200005 C613.768523,252.200005 613.05573,252.173605 611.841324,252.120805 C610.626918,252.068004 609.227732,252.015205 607.643724,251.962405 C606.059716,251.909604 604.370133,251.856805 602.574925,251.804005 C600.779716,251.751204 599.248531,251.724805 597.981325,251.724805 C596.291716,251.724805 595.446925,252.1472 595.446925,252.992005 C595.446925,253.625608 595.869321,253.942405 596.714125,253.942405 C597.242127,253.942405 597.98132,253.995204 598.931725,254.100805 C599.882129,254.206405 600.77972,254.364803 601.624525,254.576004 C604.898141,255.315208 606.693323,258.271978 607.010124,263.446404 C607.115725,264.71361 607.194924,266.059997 607.247724,267.485604 C607.300525,268.911211 607.326924,270.838392 607.326924,273.267204 L607.326924,325.539202 C607.326924,333.142439 607.300525,339.927171 607.247724,345.893601 C607.194924,351.860031 606.957326,356.532784 606.534924,359.912 C606.218123,362.235212 605.769327,364.188792 605.188524,365.7728 C604.607722,367.356808 603.525332,368.307199 601.941325,368.624 C601.202121,368.835201 600.410129,368.9936 599.565325,369.0992 C598.72052,369.204801 597.928528,369.2576 597.189325,369.2576 C596.344521,369.2576 595.922125,369.574397 595.922125,370.208 C595.922125,371.052804 596.766916,371.4752 598.456525,371.4752 C599.61813,371.4752 601.043716,371.4488 602.733325,371.396 C604.422933,371.3432 606.059716,371.2904 607.643724,371.2376 C609.227732,371.1848 610.626918,371.132 611.841324,371.0792 C613.05573,371.0264 613.768523,371 613.979724,371 C614.190925,371 614.903718,371.0264 616.118124,371.0792 C617.33253,371.132 618.863715,371.1848 620.711724,371.2376 C622.559733,371.2904 624.592513,371.3432 626.810124,371.396 C629.027735,371.4488 631.245312,371.4752 633.462923,371.4752 C635.152532,371.4752 635.997323,371.052804 635.997323,370.208 C635.997323,369.574397 635.574927,369.2576 634.730123,369.2576 C633.99092,369.2576 632.90853,369.204801 631.482923,369.0992 C630.057316,368.9936 628.763729,368.835201 627.602124,368.624 C625.173312,368.307199 623.589327,367.356808 622.850124,365.7728 C622.11092,364.188792 621.635725,362.235212 621.424524,359.912 C621.002122,356.532784 620.764524,351.860031 620.711724,345.893601 C620.658924,339.927171 620.632524,333.142439 620.632524,325.539202 Z M725.186924,258.536004 L745.145323,258.852804 C748.946942,258.958405 752.08851,259.248802 754.570123,259.724004 C757.051735,260.199207 759.005315,260.806401 760.430922,261.545604 C761.85653,262.284808 762.886119,263.182399 763.519722,264.238404 C764.153325,265.294409 764.522922,266.403198 764.628522,267.564804 L764.786922,269.307204 C764.892523,270.46881 765.024521,271.208002 765.182922,271.524804 C765.341323,271.841605 765.63172,272.000004 766.054122,272.000004 C766.793326,272.000004 767.162922,271.313611 767.162922,269.940804 C767.162922,269.518402 767.189322,268.594411 767.242122,267.168804 C767.294922,265.743197 767.347722,264.132813 767.400522,262.337604 L767.558922,256.952004 C767.611722,255.156795 767.638122,253.67841 767.638122,252.516805 C767.638122,251.988802 767.611722,251.540006 767.558922,251.170405 C767.506122,250.800803 767.268524,250.616005 766.846122,250.616005 C766.529321,250.616005 766.001326,250.695204 765.262122,250.853605 C764.522919,251.012005 763.572528,251.196804 762.410922,251.408005 C761.143716,251.619206 759.586132,251.804004 757.738123,251.962405 C755.890113,252.120805 753.698935,252.200005 751.164523,252.200005 L691.764525,252.200005 C690.81412,252.200005 689.071738,252.120805 686.537325,251.962405 C684.002913,251.804004 681.574137,251.619206 679.250926,251.408005 C677.138915,251.196804 675.581331,250.827207 674.578126,250.299205 C673.574921,249.771202 672.809328,249.507205 672.281326,249.507205 C671.964524,249.507205 671.674127,249.876801 671.410126,250.616005 C671.146125,251.355208 670.908527,251.988802 670.697326,252.516805 C670.591725,252.833606 670.354128,253.783997 669.984526,255.368004 C669.614924,256.952012 669.218928,258.694395 668.796526,260.595204 C668.374124,262.496014 668.004528,264.264796 667.687726,265.901604 C667.370924,267.538412 667.212526,268.568002 667.212526,268.990404 C667.212526,269.940809 667.476523,270.416004 668.004526,270.416004 C668.638129,270.416004 669.166124,269.888009 669.588526,268.832004 C669.799727,268.304001 670.090124,267.696807 670.459726,267.010404 C670.829328,266.324001 671.436522,265.294411 672.281326,263.921604 C672.914929,262.971199 673.654122,262.179207 674.498926,261.545604 C675.34373,260.912001 676.399719,260.410406 677.666926,260.040804 C678.934132,259.671202 680.438917,259.380805 682.181325,259.169604 C683.923734,258.958403 686.009313,258.852804 688.438125,258.852804 L711.881324,258.536004 L711.881324,325.539202 C711.881324,333.142439 711.854925,339.927171 711.802124,345.893601 C711.749324,351.860031 711.511726,356.532784 711.089324,359.912 C710.772523,362.235212 710.323727,364.188792 709.742924,365.7728 C709.162122,367.356808 708.079732,368.307199 706.495725,368.624 C705.756521,368.835201 704.964529,368.9936 704.119725,369.0992 C703.27492,369.204801 702.482928,369.2576 701.743725,369.2576 C700.898921,369.2576 700.476525,369.574397 700.476525,370.208 C700.476525,371.052804 701.321316,371.4752 703.010925,371.4752 C704.17253,371.4752 705.598116,371.4488 707.287724,371.396 C708.977333,371.3432 710.614116,371.2904 712.198124,371.2376 C713.782132,371.1848 715.181318,371.132 716.395724,371.0792 C717.61013,371.0264 718.322923,371 718.534124,371 C718.745325,371 719.458118,371.0264 720.672524,371.0792 C721.88693,371.132 723.418115,371.1848 725.266124,371.2376 C727.114133,371.2904 729.146913,371.3432 731.364524,371.396 C733.582135,371.4488 735.799712,371.4752 738.017323,371.4752 C739.706932,371.4752 740.551723,371.052804 740.551723,370.208 C740.551723,369.574397 740.129327,369.2576 739.284523,369.2576 C738.54532,369.2576 737.46293,369.204801 736.037323,369.0992 C734.611716,368.9936 733.318129,368.835201 732.156524,368.624 C729.727711,368.307199 728.143727,367.356808 727.404524,365.7728 C726.66532,364.188792 726.190125,362.235212 725.978924,359.912 C725.556522,356.532784 725.318924,351.860031 725.266124,345.893601 C725.213324,339.927171 725.186924,333.142439 725.186924,325.539202 L725.186924,258.536004 Z M801.587726,354.051201 C800.109318,358.064021 798.446135,361.416787 796.598126,364.1096 C794.750117,366.802414 791.978144,368.412797 788.282126,368.9408 C787.648523,369.046401 786.856531,369.1256 785.906126,369.1784 C784.955722,369.2312 784.216529,369.2576 783.688526,369.2576 C782.738122,369.2576 782.262926,369.574397 782.262926,370.208 C782.262926,371.052804 783.266116,371.4752 785.272526,371.4752 C787.173336,371.4752 789.074117,371.4488 790.974926,371.396 C792.875735,371.3432 794.670917,371.2904 796.360526,371.2376 C798.050134,371.1848 799.50212,371.132 800.716526,371.0792 C801.930932,371.0264 802.749323,371 803.171726,371 C803.594128,371 804.306921,371.0264 805.310125,371.0792 C806.31333,371.132 807.39572,371.1848 808.557325,371.2376 C809.718931,371.2904 810.933319,371.3432 812.200525,371.396 C813.467732,371.4488 814.57652,371.4752 815.526925,371.4752 C817.110933,371.4752 817.902925,371.052804 817.902925,370.208 C817.902925,369.574397 817.37493,369.2576 816.318925,369.2576 L814.734925,369.2576 C813.362118,369.2576 812.015732,368.888004 810.695725,368.1488 C809.375719,367.409596 808.715725,366.248008 808.715725,364.664 C808.715725,361.707186 809.454918,358.169621 810.933325,354.051201 L820.437325,326.014402 C820.754126,325.169598 821.282121,324.747202 822.021325,324.747202 L856.077324,324.747202 C856.710927,324.747202 857.186122,325.063999 857.502923,325.697602 L872.234123,364.664 C872.762126,365.931207 872.867724,366.907997 872.550923,367.5944 C872.234121,368.280804 871.811726,368.729599 871.283723,368.9408 C870.544519,369.152001 870.174923,369.521597 870.174923,370.0496 C870.174923,370.577603 870.597319,370.868 871.442123,370.9208 C872.286927,370.9736 873.448515,371.052799 874.926923,371.1584 C877.672536,371.264001 880.391709,371.3432 883.084522,371.396 C885.777336,371.4488 888.232511,371.4752 890.450122,371.4752 L899.795722,371.4752 C900.640526,371.4752 901.379719,371.396001 902.013322,371.2376 C902.646925,371.079199 902.963722,370.736003 902.963722,370.208 C902.963722,369.574397 902.435727,369.2576 901.379722,369.2576 C900.534918,369.2576 899.558127,369.204801 898.449322,369.0992 C897.340516,368.9936 896.205328,368.729602 895.043722,368.3072 C894.198918,368.095999 893.274927,367.726403 892.271722,367.1984 C891.268517,366.670398 890.212528,365.772807 889.103722,364.5056 C887.994917,363.238394 886.780529,361.496011 885.460522,359.2784 C884.140516,357.060789 882.794129,354.209618 881.421323,350.724801 L875.481323,335.676801 C873.105311,329.657571 870.623736,323.295235 868.036523,316.589602 C865.44931,309.883969 862.835736,303.099237 860.195723,296.235203 C857.55571,289.371169 855.153334,283.061632 852.988524,277.306404 C850.823713,271.551175 848.975731,266.667224 847.444524,262.654404 C845.913316,258.641584 844.936526,256.160009 844.514124,255.209604 C843.563719,252.780792 842.877326,251.223208 842.454924,250.536805 C842.032522,249.850401 841.557327,249.507205 841.029324,249.507205 C840.501321,249.507205 840.026126,249.876801 839.603724,250.616005 C839.181322,251.355208 838.494929,253.044791 837.544524,255.684804 L801.587726,354.051201 Z M823.763725,319.044802 C823.130122,319.044802 822.971723,318.675206 823.288525,317.936002 L837.227724,275.168004 C837.966928,272.844792 838.75892,272.844792 839.603724,275.168004 L854.651724,317.936002 C854.862925,318.675206 854.651727,319.044802 854.018124,319.044802 L823.763725,319.044802 Z M954.594124,325.856002 L954.594124,273.267204 C954.594124,270.838392 954.620524,268.911211 954.673324,267.485604 C954.726125,266.059997 954.805324,264.71361 954.910924,263.446404 C955.122125,260.700791 955.62372,258.615211 956.415724,257.189604 C957.207728,255.763997 958.765313,254.840007 961.088524,254.417604 C962.038929,254.206403 963.015719,254.074405 964.018924,254.021605 C965.022129,253.968804 965.787721,253.942405 966.315724,253.942405 C967.160528,253.942405 967.582924,253.625608 967.582924,252.992005 C967.582924,252.1472 966.738132,251.724805 965.048524,251.724805 C963.886918,251.724805 962.382133,251.751204 960.534124,251.804005 C958.686115,251.856805 956.864533,251.909604 955.069324,251.962405 C953.274115,252.015205 951.690131,252.068004 950.317324,252.120805 C948.944518,252.173605 948.152526,252.200005 947.941325,252.200005 C947.730123,252.200005 947.017331,252.173605 945.802925,252.120805 C944.588519,252.068004 943.110133,252.015205 941.367725,251.962405 C939.625316,251.909604 937.750935,251.856805 935.744525,251.804005 C933.738115,251.751204 931.837334,251.724805 930.042125,251.724805 C928.352517,251.724805 927.507725,252.1472 927.507725,252.992005 C927.507725,253.625608 927.930121,253.942405 928.774925,253.942405 C929.514129,253.942405 930.43812,253.968804 931.546925,254.021605 C932.655731,254.074405 933.526922,254.206403 934.160525,254.417604 C936.800538,254.945607 938.542921,255.895998 939.387725,257.268804 C940.232529,258.641611 940.760524,260.700791 940.971725,263.446404 C941.077325,264.71361 941.156525,266.059997 941.209325,267.485604 C941.262125,268.911211 941.288525,270.838392 941.288525,273.267204 L941.288525,325.539202 C941.288525,333.142439 941.262125,339.927171 941.209325,345.893601 C941.156525,351.860031 940.918927,356.532784 940.496525,359.912 C940.179723,362.235212 939.730928,364.188792 939.150125,365.7728 C938.569322,367.356808 937.486933,368.307199 935.902925,368.624 C935.163721,368.835201 934.371729,368.9936 933.526925,369.0992 C932.682121,369.204801 931.890129,369.2576 931.150925,369.2576 C930.306121,369.2576 929.883725,369.574397 929.883725,370.208 C929.883725,371.052804 930.728517,371.4752 932.418125,371.4752 C933.579731,371.4752 934.978917,371.4488 936.615725,371.396 C938.252533,371.3432 939.862917,371.264001 941.446925,371.1584 C943.030933,371.1584 944.430119,371.132 945.644525,371.0792 C946.858931,371.0264 947.624523,371 947.941325,371 C950.264536,371 952.693312,371.0264 955.227724,371.0792 C957.762137,371.132 960.718907,371.263999 964.098124,371.4752 C967.477341,371.580801 971.278903,371.686399 975.502923,371.792 C979.726944,371.8976 984.690095,371.9504 990.392523,371.9504 C992.504533,371.9504 994.167717,371.8976 995.382123,371.792 C996.596529,371.686399 997.520519,371.475202 998.154123,371.1584 C998.787726,370.841598 999.236521,370.419203 999.500523,369.8912 C999.764524,369.363197 1000.05492,368.624005 1000.37172,367.6736 C1000.68852,366.511994 1000.97892,365.112808 1001.24292,363.476 C1001.50692,361.839192 1001.77092,360.228808 1002.03492,358.6448 C1002.29892,357.060793 1002.48372,355.635207 1002.58932,354.368001 C1002.69492,353.100794 1002.74772,352.256003 1002.74772,351.833601 C1002.74772,350.249593 1002.43093,349.457601 1001.79732,349.457601 C1001.05812,349.457601 1000.58292,350.143994 1000.37172,351.516801 C1000.16052,352.995208 999.685326,354.631992 998.946123,356.427201 C998.206919,358.222409 997.309328,359.753594 996.253323,361.0208 C994.352513,363.344012 991.738939,364.716798 988.412523,365.1392 C985.086106,365.561602 981.310944,365.7728 977.086923,365.7728 C974.024508,365.7728 971.410934,365.693601 969.246124,365.5352 C967.081313,365.376799 965.286131,365.165602 963.860524,364.9016 C962.434917,364.637599 961.273329,364.268003 960.375724,363.7928 C959.47812,363.317598 958.712527,362.763203 958.078924,362.1296 C956.600517,360.756794 955.650126,357.272029 955.227724,351.675201 C954.805322,346.078373 954.594124,337.472059 954.594124,325.856002 Z" id="Combined-Shape" fill="#FFFFFF"></path>
        </g>
    </g>
</svg>